<svg xmlns="http://www.w3.org/2000/svg" version="1.0" width="260.000000pt" height="255.000000pt" viewBox="0 0 260.000000 255.000000" preserveAspectRatio="xMidYMid meet">

<g transform="translate(0.000000,255.000000) scale(0.100000,-0.100000)" fill="#d4af37" stroke="none">
<path d="M1145 2410 c-380 -60 -701 -286 -872 -616 -344 -661 17 -1477 735 -1660 473 -121 966 57 1246 450 242 338 282 787 106 1164 -153 326 -448 563 -800 643 -99 23 -324 33 -415 19z m130 -49 c12 -39 75 -34 75 5 0 8 9 14 20 14 11 0 20 -4 20 -10 0 -5 9 -19 20 -30 16 -16 25 -18 40 -10 11 6 20 17 20 25 0 8 8 15 19 15 13 0 20 -9 25 -30 4 -23 11 -30 30 -30 13 0 30 9 37 21 9 13 20 18 31 14 10 -4 15 -11 12 -16 -3 -5 -2 -18 1 -29 8 -25 53 -27 70 -3 18 24 44 10 38 -20 -4 -18 1 -28 15 -36 22 -12 52 -5 52 11 0 5 8 8 18 6 11 -2 19 -15 22 -38 6 -40 31 -51 59 -26 15 13 20 14 36 2 12 -9 15 -15 7 -20 -17 -10 -15 -32 4 -50 20 -20 29 -20 49 0 24 24 48 1 33 -31 -18 -39 28 -75 58 -45 5 5 15 6 24 0 12 -7 12 -12 1 -34 -20 -36 1 -60 45 -53 32 5 56 -15 34 -28 -6 -4 -10 -17 -10 -30 0 -29 27 -47 51 -34 12 6 21 4 29 -7 11 -12 10 -17 -4 -27 -11 -8 -17 -23 -14 -38 2 -20 9 -24 38 -25 39 0 51 -22 25 -44 -32 -27 -1 -79 38 -64 24 9 30 -27 7 -43 -33 -23 -20 -65 22 -68 30 -2 35 -30 9 -45 -35 -18 -21 -70 20 -70 28 0 30 -27 3 -44 -29 -19 -31 -51 -5 -65 10 -6 21 -8 23 -5 3 3 8 -2 11 -10 4 -10 -3 -20 -21 -28 -33 -16 -36 -49 -4 -63 12 -5 22 -17 22 -25 0 -8 -10 -20 -22 -25 -31 -13 -35 -50 -9 -67 26 -16 28 -48 3 -48 -40 0 -59 -57 -22 -67 29 -8 26 -43 -3 -43 -45 0 -65 -50 -27 -70 27 -15 14 -38 -23 -42 -25 -2 -33 -8 -35 -26 -2 -13 3 -31 12 -41 20 -21 6 -45 -22 -37 -12 4 -26 1 -36 -9 -20 -20 -20 -25 0 -53 20 -29 10 -43 -28 -39 -39 3 -59 -23 -40 -54 17 -26 -2 -56 -24 -38 -7 6 -23 8 -35 4 -18 -6 -21 -12 -16 -46 6 -45 -3 -55 -34 -38 -18 9 -25 8 -41 -9 -16 -16 -18 -24 -9 -40 15 -29 -9 -48 -38 -30 -30 19 -56 -1 -56 -42 0 -37 -16 -48 -35 -25 -16 19 -34 19 -55 -1 -10 -10 -13 -24 -9 -36 9 -31 -16 -41 -42 -17 -19 17 -26 19 -44 9 -16 -9 -21 -18 -17 -37 6 -31 -17 -42 -42 -19 -30 27 -61 21 -68 -14 -8 -41 -22 -48 -43 -21 -24 32 -64 25 -68 -11 -2 -20 -9 -28 -23 -28 -10 0 -19 7 -19 15 0 19 -34 37 -54 29 -9 -3 -19 -17 -22 -30 -8 -31 -41 -32 -46 -2 -4 33 -59 33 -73 1 -12 -28 -45 -31 -45 -4 0 44 -62 52 -75 10 -9 -27 -39 -20 -43 9 -2 12 -12 27 -23 32 -15 9 -24 6 -42 -14 -26 -28 -43 -23 -48 13 -2 13 -12 29 -22 35 -15 9 -22 7 -38 -13 -24 -30 -49 -21 -49 18 0 37 -32 51 -60 26 -25 -23 -45 -14 -45 20 0 37 -26 53 -58 36 -33 -18 -48 -7 -41 28 5 23 2 32 -16 41 -18 9 -25 9 -40 -5 -22 -20 -35 -6 -35 39 0 36 -27 56 -54 39 -28 -17 -48 7 -30 35 18 29 -5 56 -41 48 -38 -7 -55 12 -33 36 24 26 6 53 -35 54 -41 0 -48 9 -33 38 20 37 11 61 -24 61 -38 0 -52 20 -31 44 9 10 16 25 16 34 0 20 -33 39 -53 31 -24 -9 -30 27 -7 43 11 8 20 20 20 28 0 22 -28 44 -50 38 -27 -7 -27 28 0 45 35 21 19 72 -22 72 -25 0 -23 36 3 43 29 8 23 61 -8 65 -38 6 -41 52 -3 52 10 0 21 7 24 16 8 20 -11 54 -29 54 -26 0 -17 37 10 44 31 8 34 50 5 68 -30 19 -25 46 8 50 21 2 28 9 30 31 3 22 -1 30 -18 34 -31 8 -21 37 15 43 24 4 31 11 33 33 2 18 -2 29 -12 33 -9 3 -16 15 -16 25 0 14 7 19 30 19 20 0 33 7 41 22 10 18 8 24 -11 40 -18 14 -20 21 -11 32 7 8 21 12 31 9 40 -11 69 45 35 65 -28 15 -7 39 33 38 31 -1 37 2 40 22 2 13 -2 29 -8 37 -18 22 -2 36 34 30 44 -9 65 15 46 51 -18 33 -2 49 33 33 38 -17 61 3 52 47 -6 37 10 50 37 27 13 -12 21 -12 38 -3 18 9 21 18 16 41 -7 35 8 46 41 28 32 -17 59 -1 56 34 -2 32 24 43 48 21 26 -24 53 -14 57 21 5 38 42 66 42 31 0 -17 27 -28 51 -21 13 4 19 16 19 36 0 35 28 40 48 9 22 -36 83 -14 68 25 -4 11 1 15 18 15 16 0 26 -7 29 -21 8 -30 61 -23 65 9 4 28 38 30 47 3z" fill="#d4af37"/>
<path d="M1125 2295 c-415 -77 -735 -371 -840 -771 -145 -551 180 -1121 727 -1278 551 -158 1119 145 1298 693 91 281 50 624 -104 866 -159 248 -370 402 -656 476 -103 27 -317 34 -425 14z m292 -6 c311 -34 590 -204 757 -461 201 -309 228 -685 71 -1015 -132 -279 -376 -480 -683 -565 -65 -18 -104 -22 -257 -22 -153 0 -192 4 -257 22 -242 66 -455 213 -594 408 -62 87 -131 236 -161 351 -35 137 -37 343 -3 482 115 474 501 786 1003 810 15 0 71 -4 124 -10z" fill="#d4af37"/>
<path d="M1125 2255 c-222 -41 -398 -138 -562 -308 -413 -430 -351 -1134 131 -1499 303 -229 709 -269 1053 -103 279 135 478 385 549 690 28 121 26 351 -5 465 -48 179 -126 321 -246 449 -133 140 -300 240 -482 287 -125 33 -318 41 -438 19z m90 -87 c-1 -55 -9 -68 -45 -68 -33 0 -35 2 -44 53 -6 30 -4 37 9 37 11 0 15 -10 15 -35 0 -39 21 -55 44 -36 10 8 12 21 6 46 -5 23 -4 36 4 39 6 2 11 5 11 5 0 1 0 -18 0 -41z m179 36 c9 -3 16 -10 16 -15 0 -5 -8 -4 -19 2 -10 7 -26 9 -35 6 -19 -7 -22 -57 -4 -75 18 -18 -3 -14 -24 5 -23 21 -23 38 2 63 21 21 37 24 64 14z m181 -86 c6 -41 5 -48 -9 -48 -9 0 -16 6 -15 13 5 37 -22 54 -35 22 -3 -8 -10 -15 -16 -15 -6 0 3 21 21 46 17 25 35 42 39 37 5 -4 11 -29 15 -55z m-557 20 c7 -7 12 -24 12 -40 0 -20 -8 -31 -30 -43 -41 -21 -45 -20 -59 25 -6 22 -17 40 -24 41 -19 1 45 28 69 29 11 0 25 -5 32 -12z m387 -18 c-3 -5 -12 -10 -18 -10 -7 0 -6 4 3 10 19 12 23 12 15 0z m375 -41 c0 -8 -5 -7 -15 1 -9 7 -17 11 -19 9 -13 -15 -34 -68 -29 -73 4 -3 1 -6 -5 -6 -20 0 -23 19 -7 49 19 38 19 51 -1 51 -8 0 -12 4 -9 10 8 12 85 -26 85 -41z m-954 -21 c4 -7 3 -8 -5 -4 -6 4 -14 0 -17 -9 -9 -22 2 -30 21 -15 10 8 15 9 15 1 0 -6 -4 -11 -10 -11 -13 0 -13 -27 -1 -35 5 -3 17 2 25 11 9 8 16 11 16 5 0 -5 -13 -19 -29 -30 l-29 -21 -6 23 c-3 12 -14 32 -25 44 l-20 21 22 16 c27 18 34 19 43 4z m1043 -79 c-16 -17 -29 -36 -29 -41 0 -6 -6 -5 -15 2 -12 10 -11 15 10 38 14 15 25 33 25 40 0 9 5 10 19 2 18 -9 18 -11 -10 -41z m-383 1 c214 -54 392 -198 489 -395 61 -126 78 -209 73 -359 -8 -206 -69 -347 -218 -496 -94 -95 -186 -150 -320 -191 -108 -34 -302 -34 -410 0 -267 83 -459 283 -524 546 -24 97 -23 257 3 357 45 175 159 335 308 434 63 41 201 101 265 113 84 17 250 12 334 -9z m526 -77 c28 -25 24 -71 -8 -84 -37 -13 -74 11 -74 49 0 50 45 69 82 35z m-1338 -110 c4 -10 -1 -23 -11 -32 -15 -15 -16 -15 -5 0 11 14 5 23 -38 59 -27 23 -47 46 -44 51 6 11 89 -55 98 -78z m1446 -78 c-15 -44 -10 -51 17 -25 15 13 23 15 26 7 2 -7 -16 -22 -40 -34 -47 -24 -50 -21 -33 36 5 19 8 36 6 38 -1 2 -15 -6 -29 -17 -17 -14 -27 -16 -29 -8 -5 14 73 57 86 47 4 -4 3 -24 -4 -44z m-1552 -3 c4 -25 -27 -89 -37 -75 -3 6 -22 19 -42 29 l-35 19 18 30 c9 16 25 33 35 36 23 9 57 -13 61 -39z m-22 -239 c-33 -110 -36 -292 -5 -409 42 -162 135 -310 260 -412 38 -31 69 -59 69 -62 0 -3 -18 -40 -41 -83 l-40 -77 -32 17 c-49 28 -220 202 -267 272 -128 192 -184 445 -150 684 l12 87 100 0 c90 0 99 -2 94 -17z m1716 -18 c5 -16 11 -80 15 -141 18 -333 -122 -636 -387 -836 -60 -46 -65 -48 -78 -31 -17 23 -72 130 -72 141 0 4 31 33 69 64 180 148 281 365 281 608 0 58 -4 121 -9 140 -5 19 -12 48 -15 63 l-7 28 98 -3 97 -3 8 -30z m-1327 -973 c1 -9 5 -28 9 -42 l7 -25 -20 25 c-13 16 -21 20 -21 11 0 -8 -2 -12 -5 -10 -2 3 1 19 7 37 13 32 21 34 23 4z m752 1 c1 -10 4 -29 8 -43 6 -24 5 -23 -10 3 -9 16 -14 35 -11 43 7 19 11 18 13 -3z m-44 -43 c9 -16 12 -32 8 -35 -4 -2 -13 11 -19 30 -13 43 -8 45 11 5z m-653 -27 c-11 -17 -11 -17 -6 0 3 10 6 24 7 30 0 9 2 9 5 0 3 -7 0 -20 -6 -30z m30 -10 c-11 -17 -11 -17 -6 0 3 10 6 24 7 30 0 9 2 9 5 0 3 -7 0 -20 -6 -30z m53 -3 c-3 -11 -9 -17 -14 -15 -10 7 -1 35 11 35 5 0 6 -9 3 -20z m519 -10 c6 0 8 -3 5 -6 -10 -11 -38 17 -30 30 5 7 9 5 11 -6 2 -10 8 -18 14 -18z m-482 11 c0 -6 -4 -13 -10 -16 -5 -3 -10 1 -10 9 0 9 5 16 10 16 6 0 10 -4 10 -9z m37 -28 c-3 -10 -5 -4 -5 12 0 17 2 24 5 18 2 -7 2 -21 0 -30z m163 2 c0 -19 -4 -35 -10 -35 -5 0 -10 16 -10 35 0 19 5 35 10 35 6 0 10 -16 10 -35z m64 -4 c1 -17 -1 -31 -6 -31 -4 0 -8 17 -8 37 0 43 11 38 14 -6z m84 9 c7 -11 8 -20 2 -20 -5 0 -14 9 -20 20 -6 11 -7 20 -3 20 5 0 14 -9 21 -20z m72 10 c8 -5 12 -11 9 -14 -3 -3 -14 1 -25 9 -21 16 -8 20 16 5z m-347 -15 c4 -8 2 -17 -2 -20 -5 -2 -11 4 -14 15 -6 23 8 27 16 5z m227 -16 c0 -11 -4 -17 -10 -14 -5 3 -10 15 -10 26 0 11 5 17 10 14 6 -3 10 -15 10 -26z" fill="#d4af37"/>
<path d="M956 2131 c-3 -5 -1 -23 5 -40 13 -37 42 -39 47 -3 5 37 -35 70 -52 43z" fill="#d4af37"/>
<path d="M1124 1940 c-310 -81 -525 -359 -526 -678 0 -117 21 -211 67 -307 71 -149 178 -256 330 -330 203 -100 415 -99 624 2 79 38 108 59 181 131 149 150 210 296 210 505 -1 265 -143 496 -382 622 -141 74 -346 97 -504 55z m324 -6 c247 -51 438 -226 523 -479 20 -60 24 -89 23 -200 -1 -113 -4 -141 -27 -211 -15 -45 -49 -115 -75 -155 -138 -209 -344 -322 -587 -322 -211 0 -398 86 -533 245 -135 160 -191 384 -147 593 19 90 91 235 150 303 170 192 424 277 673 226z" fill="#d4af37"/>
<path d="M1196 1542 c23 -11 56 -38 74 -61 l33 -41 36 41 c19 23 53 50 75 60 38 17 39 19 13 19 -34 0 -88 -22 -106 -43 -12 -15 -16 -14 -47 9 -19 15 -52 28 -76 31 l-43 4 41 -19z" fill="#d4af37"/>
<path d="M1075 1513 c6 -6 30 -15 54 -22 53 -15 131 -85 156 -141 l18 -41 28 52 c41 74 124 139 179 139 11 0 20 5 20 10 0 12 -71 2 -116 -16 -18 -7 -49 -33 -71 -58 l-39 -44 -33 39 c-18 22 -49 48 -69 58 -40 20 -144 39 -127 24z" fill="#d4af37"/>
<path d="M1000 1317 l0 -154 53 -12 c64 -14 117 -41 175 -88 l42 -34 0 128 c0 114 -3 134 -24 178 -13 28 -34 60 -47 72 -37 33 -109 63 -156 63 l-43 0 0 -153z m49 18 c0 -33 -4 -69 -9 -80 -6 -13 -9 15 -9 80 0 65 3 93 9 80 5 -11 9 -47 9 -80z" fill="#d4af37"/>
<path d="M1490 1457 c-49 -16 -123 -93 -138 -143 -6 -23 -12 -96 -12 -162 l0 -121 64 48 c48 36 83 54 135 67 l71 19 -2 150 -3 150 -40 2 c-22 1 -56 -4 -75 -10z m-35 -67 c-16 -16 -44 -60 -62 -97 -31 -63 -33 -65 -28 -28 9 51 31 93 68 127 39 38 58 36 22 -2z" fill="#d4af37"/>
<path d="M942 1398 c-8 -8 -12 -55 -12 -144 0 -145 7 -164 57 -164 35 0 141 -28 178 -47 27 -15 29 -15 17 0 -22 26 -112 66 -164 73 l-48 7 0 143 c0 79 -4 144 -8 144 -4 0 -13 -5 -20 -12z" fill="#d4af37"/>
<path d="M1640 1266 l0 -143 -48 -7 c-51 -7 -142 -47 -162 -71 -9 -10 2 -8 35 6 26 12 81 27 123 34 41 7 79 19 83 27 12 19 11 256 -1 279 -23 43 -30 15 -30 -125z" fill="#d4af37"/>
<path d="M1251 910 c-17 -40 -30 -75 -27 -77 3 -3 11 6 17 21 15 33 32 34 19 1 -6 -16 -6 -25 0 -25 5 0 12 11 16 25 9 35 47 34 63 -1 6 -15 14 -24 17 -21 3 3 1 15 -6 26 -7 14 -7 21 0 21 6 0 16 -11 22 -25 6 -14 15 -25 19 -25 7 0 -26 83 -53 134 -10 18 -11 18 -20 2 -9 -16 -11 -16 -22 -1 -11 15 -17 8 -45 -55z m37 1 c-19 -27 -30 -16 -16 15 7 15 15 21 21 15 6 -6 4 -17 -5 -30z m55 9 c3 -11 2 -20 -3 -20 -8 0 -20 24 -20 41 0 17 17 1 23 -21z m-23 -14 c0 -3 -4 -8 -10 -11 -5 -3 -10 -1 -10 4 0 6 5 11 10 11 6 0 10 -2 10 -4z" fill="#d4af37"/>
<path d="M1960 1890 c-22 -22 -24 -29 -11 -49 12 -19 58 -6 66 20 7 20 -9 49 -26 49 -5 0 -18 -9 -29 -20z" fill="#d4af37"/>
<path d="M489 1724 c-11 -14 -10 -18 6 -31 44 -32 53 -34 61 -11 5 16 1 27 -16 40 -27 22 -34 22 -51 2z" fill="#d4af37"/>
</g>
</svg>