<svg xmlns="http://www.w3.org/2000/svg" xmlns:xlink="http://www.w3.org/1999/xlink" width="1080px" height="994px" viewBox="0 0 1080 994" version="1.1">
<g id="surface1">
<path style=" stroke:none;fill-rule:nonzero;fill:#4d615c;fill-opacity:1;" d="M 475.03125 107.316406 C 298.648438 131.394531 152.003906 265.433594 112.492188 438.648438 C 103.734375 477.410156 102.308594 490.882812 102.511719 537.597656 C 102.511719 584.117188 104.753906 603.5 113.714844 639.609375 C 132.859375 716.324219 172.164062 786.714844 226.550781 841.183594 C 296.8125 911.78125 383.375 954.21875 483.179688 967.070312 C 508.023438 970.332031 567.289062 969.71875 594.175781 966.046875 C 751.007812 944.214844 883.597656 838.945312 939.808594 691.636719 C 959.566406 639.8125 967.710938 594.320312 967.710938 536.578125 C 967.710938 494.753906 966.082031 479.046875 957.527344 440.691406 C 918.628906 265.230469 771.578125 130.984375 592.339844 107.113281 C 565.253906 103.4375 502.320312 103.4375 475.03125 107.316406 Z M 522.890625 121.1875 C 522.890625 129.347656 529.410156 135.269531 538.167969 135.269531 C 546.925781 135.269531 553.441406 129.347656 553.441406 121.1875 C 553.441406 116.902344 554.460938 116.292969 560.570312 116.292969 C 567.085938 116.292969 567.699219 116.902344 567.699219 122.210938 C 567.699219 140.574219 591.121094 145.0625 595.804688 127.515625 C 596.820312 124.046875 598.65625 121.390625 599.878906 121.59375 C 601.304688 121.800781 604.5625 122.003906 607.214844 122.003906 C 611.695312 122.417969 612.101562 123.230469 611.289062 128.941406 C 610.472656 134.042969 611.289062 136.898438 614.546875 140.164062 C 622.285156 148.53125 638.988281 144.449219 638.988281 134.246094 C 638.988281 131.800781 640.410156 130.570312 643.671875 130.570312 C 651.207031 130.570312 654.261719 133.835938 653.648438 141.183594 C 652.429688 155.261719 668.925781 162.808594 677.480469 151.789062 C 679.71875 148.9375 681.753906 145.875 682.164062 144.652344 C 682.570312 143.636719 685.421875 143.839844 689.292969 145.265625 C 695.605469 147.710938 695.808594 148.125 694.585938 155.667969 C 693.566406 161.996094 694.179688 164.238281 698.050781 168.316406 C 704.566406 175.257812 711.492188 174.847656 718.414062 167.296875 C 723.507812 161.792969 724.730469 161.382812 729.414062 163.421875 C 734.097656 165.667969 734.300781 166.6875 733.28125 175.460938 C 732.265625 184.234375 732.671875 185.457031 737.96875 189.535156 C 744.695312 194.839844 752.433594 194.023438 756.914062 187.703125 C 760.171875 182.804688 762.820312 182.601562 768.929688 186.886719 C 773.207031 189.738281 773.207031 190.351562 770.152344 196.269531 C 766.078125 204.230469 769.335938 213.613281 777.28125 215.648438 C 784.40625 217.695312 787.871094 216.675781 793.371094 211.570312 L 798.054688 207.285156 L 803.347656 212.59375 C 808.238281 217.695312 808.441406 218.304688 805.183594 221.367188 C 803.347656 223.199219 801.921875 227.484375 801.921875 230.75 C 801.921875 242.585938 816.179688 249.109375 824.734375 241.355469 C 831.65625 235.035156 842.25 245.640625 835.933594 252.582031 C 824.53125 265.027344 841.230469 281.757812 855.691406 272.167969 C 860.375 269.3125 860.78125 269.3125 863.835938 273.800781 C 868.113281 279.714844 867.910156 282.164062 863.023438 286.652344 C 857.117188 291.957031 857.726562 300.730469 864.246094 305.828125 C 869.945312 310.316406 878.304688 311.542969 880.339844 308.074219 C 882.578125 304.402344 886.855469 305.828125 890.523438 311.339844 C 893.984375 316.644531 893.984375 316.847656 888.28125 321.335938 C 880.949219 327.25 880.542969 337.660156 887.46875 343.167969 C 891.949219 346.839844 896.429688 347.246094 905.59375 344.59375 C 907.222656 344.183594 909.871094 346.226562 911.703125 349.492188 C 914.960938 355 914.757812 355.203125 908.445312 360.304688 C 900.09375 366.835938 899.484375 374.582031 906.816406 381.523438 C 910.890625 385.398438 913.128906 386.011719 919.851562 384.789062 C 927.589844 383.566406 927.996094 383.769531 929.21875 389.886719 C 930.035156 393.359375 930.238281 396.210938 929.828125 396.625 C 929.625 396.828125 926.773438 398.660156 923.71875 400.496094 C 919.035156 403.351562 918.015625 405.601562 918.015625 412.125 C 918.015625 421.917969 924.332031 427.023438 934.515625 425.996094 C 940.21875 425.386719 941.234375 426.203125 942.660156 431.304688 C 944.492188 438.238281 943.476562 440.691406 938.996094 440.691406 C 933.292969 440.691406 928.199219 447.011719 928.199219 454.15625 C 928.199219 462.722656 936.550781 470.070312 944.492188 468.230469 C 949.382812 467.210938 950.195312 467.621094 951.417969 473.539062 C 952.84375 481.085938 951.621094 483.535156 946.328125 483.535156 C 940.625 483.535156 934.3125 490.882812 934.3125 497.40625 C 934.3125 504.550781 940.828125 510.871094 948.160156 511.28125 C 952.4375 511.28125 953.863281 512.507812 954.269531 516.589844 C 954.878906 520.875 953.863281 522.09375 949.179688 523.316406 C 946.125 523.929688 941.847656 526.175781 940.011719 527.804688 C 931.867188 535.152344 938.585938 550.863281 949.585938 550.863281 C 954.269531 550.863281 954.675781 551.679688 954.675781 559.019531 C 954.675781 566.773438 954.472656 567.183594 948.160156 567.183594 C 939.605469 567.183594 934.3125 572.285156 934.3125 580.441406 C 934.3125 587.382812 938.792969 592.886719 945.511719 594.117188 C 948.566406 594.523438 949.789062 596.5625 950.195312 602.480469 C 950.808594 610.027344 950.808594 610.027344 942.863281 610.027344 C 925.960938 610.027344 920.664062 630.835938 936.144531 636.140625 C 942.660156 638.386719 943.273438 640.222656 941.234375 648.382812 C 940.011719 652.261719 938.996094 652.871094 933.089844 651.648438 C 916.59375 648.585938 909.464844 673.480469 925.144531 679.398438 C 929.625 681.027344 929.828125 681.84375 927.792969 687.554688 C 925.757812 693.679688 925.144531 693.882812 917.8125 692.660156 C 911.09375 691.433594 909.261719 692.046875 904.574219 696.742188 C 900.296875 701.023438 899.484375 703.265625 900.503906 708.570312 C 901.722656 714.488281 902.742188 715.710938 909.667969 719.996094 C 912.109375 721.421875 912.109375 722.855469 909.871094 728.160156 C 907.019531 735.097656 905.59375 735.707031 899.890625 732.238281 C 894.390625 728.566406 885.839844 731.628906 882.375 738.5625 C 878.914062 745.296875 880.542969 751.820312 887.265625 757.539062 C 891.335938 760.804688 891.335938 761.210938 888.28125 766.109375 C 884.820312 771.410156 880.542969 772.632812 878.304688 769.167969 C 876.058594 765.699219 866.078125 766.921875 861.394531 771.207031 C 855.691406 776.511719 855.488281 786.308594 860.984375 791 C 866.28125 795.691406 866.078125 798.136719 860.375 803.648438 C 856.097656 807.519531 855.28125 807.730469 852.839844 804.871094 C 850.191406 801.605469 839.195312 800.789062 835.324219 803.445312 C 830.027344 806.910156 827.992188 814.253906 830.4375 820.375 C 831.863281 823.640625 833.695312 826.292969 834.714844 826.292969 C 838.582031 826.292969 836.34375 832.003906 831.25 835.472656 C 826.566406 838.535156 825.75 838.535156 822.492188 835.679688 C 816.789062 830.375 804.976562 831.394531 801.109375 837.511719 C 797.035156 843.839844 797.035156 847.511719 801.109375 854.039062 C 804.367188 858.730469 804.164062 859.347656 800.90625 863.015625 C 796.21875 868.121094 794.589844 868.121094 788.277344 863.015625 C 781.964844 858.117188 775.855469 857.914062 769.539062 862.199219 C 765.875 864.855469 765.058594 866.890625 765.671875 873.015625 C 766.28125 877.097656 767.300781 881.789062 767.910156 883.417969 C 768.726562 885.257812 767.300781 887.90625 764.042969 890.152344 C 758.949219 893.828125 758.949219 893.828125 753.65625 888.722656 C 747.136719 882.195312 736.949219 881.585938 731.652344 887.5 C 728.800781 890.5625 728.394531 893.417969 729.210938 900.761719 C 730.429688 908.308594 730.023438 910.144531 726.5625 911.984375 C 721.0625 914.84375 716.378906 914.429688 716.378906 910.964844 C 716.378906 906.476562 707.011719 901.167969 701.308594 902.601562 C 692.957031 904.636719 689.496094 909.738281 690.308594 918.917969 C 690.921875 926.261719 690.308594 927.484375 685.015625 930.140625 C 680.738281 932.183594 678.699219 932.386719 678.089844 930.75 C 677.683594 929.527344 675.644531 926.261719 673.40625 923.410156 C 664.648438 912.1875 649.167969 919.332031 649.167969 934.222656 C 649.167969 940.753906 648.355469 942.382812 644.6875 943.402344 C 636.949219 945.445312 634.914062 944.832031 634.914062 940.753906 C 634.914062 934.832031 624.933594 927.898438 618.621094 929.324219 C 611.085938 931.160156 605.785156 938.300781 607.214844 944.832031 C 608.4375 950.746094 605.785156 952.785156 597.027344 952.785156 C 593.359375 952.785156 592.136719 951.765625 592.136719 948.296875 C 592.136719 941.160156 586.230469 936.46875 577.679688 936.46875 C 568.714844 936.46875 563.625 941.976562 563.625 951.15625 C 563.625 956.253906 563.015625 956.867188 556.496094 956.867188 C 550.386719 956.867188 549.367188 956.253906 549.367188 952.175781 C 549.367188 943.605469 543.871094 938.503906 534.703125 938.503906 C 524.523438 938.503906 518.820312 942.992188 518.820312 951.15625 C 518.820312 956.867188 518.410156 957.070312 511.285156 956.457031 C 504.359375 955.847656 503.542969 955.234375 502.933594 949.730469 C 502.117188 942.382812 499.265625 938.710938 492.953125 936.265625 C 486.027344 933.609375 478.085938 938.097656 476.660156 945.242188 C 475.234375 951.96875 472.175781 953.808594 464.84375 951.96875 C 460.566406 950.953125 459.75 949.523438 459.75 942.585938 C 459.75 924.835938 437.550781 922.792969 432.460938 939.933594 C 430.832031 945.242188 429.609375 945.445312 422.074219 942.585938 C 417.386719 940.753906 416.980469 939.726562 418 933.8125 C 419.832031 924.835938 413.925781 917.492188 405.167969 917.492188 C 398.449219 917.492188 390.503906 922.996094 390.503906 927.695312 C 390.503906 930.957031 385.617188 931.160156 380.117188 928.304688 C 376.859375 926.46875 376.453125 924.632812 377.46875 918.304688 C 378.488281 911.984375 377.878906 909.53125 374.414062 906.0625 C 366.878906 898.519531 352.828125 901.988281 349.363281 911.984375 C 348.753906 914.019531 347.125 913.816406 342.03125 911.167969 C 335.304688 907.699219 333.878906 905.042969 337.546875 902.804688 C 341.21875 900.554688 339.792969 890.96875 335.101562 886.074219 C 329.195312 879.746094 320.640625 879.949219 314.328125 886.886719 C 309.441406 892.191406 309.238281 892.191406 303.941406 888.722656 C 300.074219 886.277344 299.054688 884.234375 300.074219 881.789062 C 300.886719 879.949219 301.90625 875.460938 302.3125 871.996094 C 303.128906 866.890625 302.109375 864.855469 297.832031 861.179688 C 290.5 855.675781 286.222656 855.675781 279.09375 861.792969 C 273.390625 866.6875 273.1875 866.6875 268.503906 862.8125 C 263.617188 858.933594 263.617188 858.730469 267.28125 850.980469 C 270.132812 844.449219 270.335938 842.210938 268.097656 838.332031 C 266.875 835.679688 264.636719 832.820312 263.414062 832.003906 C 259.542969 829.355469 248.546875 830.171875 245.898438 833.4375 C 242.230469 837.925781 238.363281 837.105469 234.492188 831.394531 C 231.4375 826.703125 231.4375 826.089844 235.511719 820.992188 C 240.195312 815.070312 239.789062 809.765625 234.085938 803.234375 C 230.214844 798.953125 218.8125 798.746094 215.347656 802.828125 C 212.90625 805.6875 212.089844 805.484375 207.8125 801.605469 C 202.105469 796.097656 201.902344 793.242188 207.203125 788.546875 C 219.625 777.324219 203.121094 758.761719 188.664062 767.738281 C 185.199219 769.78125 184.183594 769.578125 181.535156 766.3125 C 177.460938 760.601562 177.867188 757.945312 183.773438 752.03125 C 190.292969 745.5 190.292969 739.789062 183.773438 733.460938 C 178.480469 727.953125 172.777344 727.140625 166.464844 730.398438 C 163.203125 732.238281 161.984375 731.425781 159.132812 725.910156 C 156.078125 719.792969 156.078125 719.386719 159.539062 716.933594 C 167.277344 711.632812 168.5 709.796875 168.5 703.878906 C 168.5 694.492188 161.167969 688.988281 150.78125 690.414062 C 142.632812 691.433594 142.226562 691.226562 140.800781 685.109375 C 139.988281 680.824219 140.394531 678.171875 141.820312 677.761719 C 159.539062 671.847656 154.652344 646.550781 136.320312 649.613281 C 130.414062 650.425781 129.394531 650.019531 127.5625 645.328125 C 125.121094 638.796875 126.546875 634.511719 131.027344 634.511719 C 136.523438 634.511719 142.023438 628.394531 142.023438 622.269531 C 142.023438 613.496094 135.710938 607.175781 127.15625 607.378906 C 120.84375 607.582031 119.824219 606.96875 118.804688 601.457031 C 117.378906 594.117188 118.601562 591.667969 123.898438 591.667969 C 129.191406 591.667969 135.914062 584.523438 135.914062 578.609375 C 135.914062 571.058594 129.394531 564.53125 122.0625 564.53125 C 116.769531 564.53125 115.546875 563.515625 114.527344 558.816406 C 112.898438 551.679688 114.527344 548.820312 120.027344 548.820312 C 126.339844 548.820312 133.875 540.863281 133.875 534.542969 C 133.875 528.214844 128.582031 522.707031 120.84375 520.667969 C 117.992188 519.847656 115.546875 518.625 115.546875 517.609375 C 115.34375 505.773438 115.75 504.144531 118.601562 505.160156 C 120.433594 505.976562 124.507812 505.363281 127.765625 503.9375 C 139.375 499.039062 138.359375 482.109375 126.136719 478.4375 C 120.027344 476.597656 119.417969 475.984375 120.027344 469.253906 C 120.640625 462.519531 121.046875 462.113281 128.582031 461.910156 C 137.949219 461.707031 142.023438 457.21875 142.023438 447.625 C 142.023438 440.078125 137.542969 434.566406 131.636719 434.566406 C 128.988281 434.566406 127.765625 433.140625 127.765625 429.875 C 127.765625 422.125 131.027344 419.269531 138.765625 419.878906 C 156.078125 421.507812 160.558594 398.050781 143.855469 392.746094 C 141.003906 391.722656 140.191406 390.296875 141.003906 388.054688 C 141.820312 386.011719 142.839844 382.949219 143.449219 381.113281 C 144.265625 378.257812 146.097656 377.847656 153.019531 378.664062 C 169.3125 380.910156 176.238281 366.21875 164.425781 355 C 158.925781 349.699219 158.519531 348.671875 160.761719 343.980469 C 162.796875 339.289062 164.019531 338.882812 169.925781 339.898438 C 179.496094 341.738281 185.8125 339.492188 188.457031 333.578125 C 191.921875 325.824219 191.515625 322.761719 185.8125 317.050781 C 179.703125 310.933594 179.496094 307.871094 184.792969 302.976562 C 188.050781 300.117188 189.476562 299.710938 191.308594 301.542969 C 194.773438 305.011719 205.367188 304.605469 209.644531 300.523438 C 214.738281 296.035156 214.535156 284.8125 209.035156 279.714844 C 204.757812 275.835938 204.757812 275.632812 208.421875 270.535156 C 212.90625 264.621094 215.753906 264.007812 219.421875 268.292969 C 223.085938 272.78125 231.640625 271.960938 237.140625 266.859375 C 242.4375 261.761719 243.25 252.785156 238.769531 248.90625 C 234.492188 245.4375 234.898438 241.5625 239.992188 236.460938 L 244.269531 232.175781 L 248.75 236.460938 C 254.65625 241.96875 263.003906 241.96875 268.300781 236.257812 C 273.1875 230.953125 273.597656 224.015625 269.320312 217.488281 C 266.265625 212.796875 266.46875 212.390625 271.558594 208.308594 L 276.855469 204.023438 L 282.964844 209.125 C 290.09375 215.039062 291.109375 215.242188 298.851562 211.164062 C 305.773438 207.691406 308.421875 200.351562 305.164062 194.226562 C 301.90625 188.109375 302.3125 186.066406 308.015625 182.398438 C 312.902344 179.132812 313.3125 179.132812 318.199219 184.4375 C 324.917969 191.578125 333.675781 191.578125 339.589844 184.234375 C 342.644531 180.355469 343.664062 177.089844 342.644531 173.417969 C 340.402344 163.625 340.605469 162.402344 346.105469 160.359375 C 350.789062 158.730469 352.214844 159.339844 357.511719 164.847656 C 364.84375 172.804688 370.546875 173.007812 377.675781 166.074219 C 381.949219 161.792969 382.5625 159.75 381.542969 153.222656 C 380.527344 146.285156 380.933594 145.265625 385.617188 143.222656 C 392.339844 139.960938 394.578125 140.164062 394.578125 143.839844 C 394.578125 148.53125 402.113281 155.054688 407.613281 155.054688 C 410.261719 155.054688 414.945312 153.019531 418 150.566406 C 422.683594 146.894531 423.292969 145.265625 422.277344 138.734375 C 421.257812 132.003906 421.664062 130.984375 425.738281 129.757812 C 433.683594 127.71875 435.515625 128.332031 437.753906 134.652344 C 440.402344 142.40625 445.902344 145.46875 453.84375 143.839844 C 460.769531 142.203125 463.824219 137.511719 463.824219 128.738281 C 463.824219 123.84375 464.84375 122.210938 468.914062 121.1875 C 475.847656 119.558594 479.714844 121.1875 480.53125 126.699219 C 480.9375 129.144531 483.585938 133.023438 486.640625 135.269531 C 491.527344 138.9375 492.75 139.140625 498.453125 136.695312 C 504.765625 134.042969 509.859375 125.878906 507.414062 122.210938 C 505.378906 118.742188 508.839844 116.292969 515.96875 116.292969 C 521.875 116.292969 522.890625 116.902344 522.890625 121.1875 Z M 522.890625 121.1875 "/>
<path style=" stroke:none;fill-rule:nonzero;fill:#4d615c;fill-opacity:1;" d="M 489.289062 146.078125 C 486.027344 146.691406 471.359375 149.34375 457.101562 151.996094 C 312.902344 179.949219 195.789062 289.097656 156.28125 431.917969 C 147.113281 465.582031 143.652344 487.617188 142.632812 523.523438 C 138.96875 632.066406 178.070312 733.257812 252.824219 809.5625 C 315.550781 873.832031 392.339844 913.003906 479.714844 925.449219 C 508.839844 929.527344 562.605469 929.527344 591.121094 925.246094 C 676.867188 912.390625 752.230469 874.644531 812.105469 814.253906 C 871.78125 754.070312 908.242188 683.480469 922.5 600.03125 C 928.609375 564.328125 928.609375 505.160156 922.5 471.292969 C 896.429688 327.453125 798.460938 212.390625 662.203125 165.261719 C 618.621094 150.160156 596.007812 146.488281 542.242188 145.875 C 516.578125 145.46875 492.75 145.671875 489.289062 146.078125 Z M 591.121094 153.019531 C 695.605469 168.519531 789.703125 226.464844 852.226562 313.785156 C 868.113281 335.820312 892.96875 384.789062 901.316406 410.292969 C 917.8125 460.6875 922.90625 495.980469 921.480469 548.820312 C 919.238281 619.417969 903.355469 674.703125 867.910156 734.480469 C 803.960938 842.003906 696.417969 909.941406 570.140625 922.386719 C 513.523438 928.101562 445.902344 918.507812 393.355469 897.703125 C 278.6875 852 194.363281 758.558594 161.574219 640.839844 C 124.101562 506.996094 161.371094 362.550781 258.933594 264.414062 C 291.519531 231.566406 324.917969 207.691406 366.675781 187.5 C 406.59375 168.316406 450.992188 155.667969 494.992188 150.976562 C 514.949219 148.9375 571.160156 149.957031 591.121094 153.019531 Z M 591.121094 153.019531 "/>
<path style=" stroke:none;fill-rule:nonzero;fill:#4d615c;fill-opacity:1;" d="M 482.972656 162.402344 C 384.597656 175.664062 293.960938 228.707031 233.882812 307.667969 C 196.199219 357.445312 172.164062 413.558594 161.167969 477.410156 C 156.078125 506.996094 156.078125 565.753906 161.167969 596.5625 C 180.71875 715.507812 255.46875 818.539062 361.585938 872.8125 C 416.574219 900.964844 471.5625 914.019531 534.296875 914.019531 C 570.347656 914.019531 597.839844 910.761719 629.210938 902.804688 C 785.628906 863.015625 900.09375 726.113281 911.5 565.144531 C 922.703125 408.042969 838.582031 262.984375 697.640625 196.066406 C 669.738281 182.804688 656.09375 177.703125 627.378906 170.359375 C 586.433594 159.542969 526.964844 156.277344 482.972656 162.402344 Z M 545.90625 188.925781 C 552.832031 190.148438 553.441406 190.765625 553.441406 197.085938 C 553.441406 204.636719 550.386719 206.46875 548.351562 199.945312 C 544.683594 188.515625 529.207031 187.5 524.929688 198.105469 C 521.464844 206.0625 523.503906 222.386719 528.1875 225.855469 C 533.484375 229.730469 541.832031 229.113281 547.128906 224.21875 C 549.570312 221.773438 552.21875 220.546875 553.035156 221.367188 C 553.847656 222.183594 551.8125 225.039062 548.757812 227.6875 C 538.167969 236.664062 515.152344 231.566406 511.894531 219.324219 C 505.582031 196.066406 518.617188 184.4375 545.90625 188.925781 Z M 484.398438 209.53125 C 490.304688 219.527344 496.621094 228.300781 498.25 229.324219 C 500.898438 230.953125 500.691406 231.566406 496.414062 232.789062 C 493.566406 233.609375 488.066406 234.21875 484.195312 234.425781 C 478.492188 234.425781 477.679688 234.015625 480.734375 232.378906 C 483.585938 230.75 483.789062 229.527344 481.957031 226.261719 C 480.328125 222.996094 478.085938 222.386719 472.378906 222.792969 C 465.859375 223.40625 464.84375 224.21875 464.230469 228.910156 C 463.621094 233.195312 464.433594 234.628906 467.082031 234.628906 C 472.585938 234.628906 467.898438 237.894531 460.363281 239.320312 C 454.25 240.542969 450.585938 238.097656 455.882812 236.257812 C 457.101562 235.851562 459.953125 226.464844 462.195312 215.242188 C 465.859375 196.882812 468.101562 191.988281 472.378906 191.78125 C 473.199219 191.78125 478.492188 199.742188 484.398438 209.53125 Z M 601.097656 213.613281 C 603.136719 224.625 606.394531 235.441406 608.234375 237.480469 C 611.289062 241.152344 611.289062 241.355469 603.339844 239.929688 C 588.878906 237.277344 587.25 236.664062 590.914062 234.015625 C 594.175781 231.566406 593.359375 222.386719 590.101562 222.386719 C 589.285156 222.386719 585.824219 221.773438 582.363281 221.164062 C 577.269531 220.136719 576.046875 220.753906 574.828125 224.21875 C 574.011719 226.875 574.621094 229.9375 575.84375 231.566406 C 577.882812 234.015625 577.472656 234.628906 573.605469 234.425781 C 570.957031 234.425781 566.882812 233.609375 564.644531 232.789062 L 560.570312 231.160156 L 564.644531 229.730469 C 566.882812 229.113281 573.195312 220.753906 578.898438 211.164062 C 586.433594 198.105469 589.898438 193.820312 593.15625 193.820312 C 597.027344 193.820312 597.839844 196.066406 601.097656 213.613281 Z M 646.523438 207.285156 C 658.945312 210.957031 670.554688 219.933594 672.386719 227.484375 C 675.238281 238.503906 663.425781 252.988281 651.816406 252.988281 C 646.113281 252.988281 618.417969 244.417969 619.84375 242.992188 C 620.453125 242.382812 621.878906 241.765625 623.101562 241.765625 C 625.542969 241.765625 634.914062 216.058594 634.914062 209.941406 C 634.914062 207.902344 633.691406 205.859375 632.46875 205.453125 C 626.359375 203 635.929688 204.230469 646.523438 207.285156 Z M 402.929688 214.835938 C 399.464844 219.324219 411.890625 248.5 417.796875 249.316406 C 421.460938 249.925781 421.054688 250.539062 414.742188 253.394531 C 410.667969 255.03125 405.371094 257.273438 402.929688 258.085938 C 398.855469 259.316406 398.652344 259.105469 400.6875 255.644531 C 402.519531 252.785156 401.707031 249.109375 396.613281 237.683594 L 390.300781 223.40625 L 391.320312 243.195312 C 392.132812 256.660156 391.726562 263.1875 390.300781 263.1875 C 389.078125 263.1875 382.15625 258.085938 375.027344 251.765625 C 367.695312 245.4375 361.585938 240.542969 360.972656 240.949219 C 360.566406 241.5625 363.824219 247.683594 368.101562 254.617188 C 373.804688 263.601562 377.0625 266.859375 379.304688 266.046875 C 385.007812 263.804688 382.5625 269.109375 376.25 272.375 C 368.714844 276.246094 368.304688 276.246094 369.527344 271.347656 C 370.136719 268.902344 367.492188 262.167969 362.808594 254.210938 C 357.105469 244.214844 353.84375 240.746094 349.976562 240.339844 C 345.496094 239.726562 346.105469 239.117188 355.066406 234.21875 L 364.84375 228.707031 L 375.636719 237.894531 L 386.433594 247.277344 L 386.433594 232.585938 C 386.433594 218.101562 386.433594 218.101562 393.152344 215.242188 C 401.910156 211.367188 405.984375 211.164062 402.929688 214.835938 Z M 712.304688 237.894531 C 730.839844 249.109375 729.210938 247.683594 727.582031 252.785156 C 726.15625 257.679688 722.488281 258.496094 722.488281 254.210938 C 722.488281 252.582031 720.25 248.703125 717.804688 245.640625 C 712.101562 239.117188 707.417969 239.929688 703.75 247.890625 C 700.898438 254.210938 704.363281 257.882812 711.898438 256.050781 C 717.601562 254.617188 717.601562 256.660156 711.285156 264.210938 L 706.398438 270.328125 L 706.195312 265.027344 C 706.195312 257.476562 700.289062 255.644531 695.605469 261.558594 C 690.308594 268.496094 691.125 272.578125 698.050781 275.429688 C 702.734375 277.472656 705.585938 277.472656 709.25 275.835938 C 715.5625 272.984375 716.378906 277.066406 710.878906 281.960938 C 707.417969 285.023438 705.992188 284.40625 692.144531 276.246094 C 675.644531 266.65625 669.738281 261.964844 676.664062 264.007812 C 680.125 265.027344 682.164062 262.78125 688.476562 251.5625 C 693.773438 242.179688 695.808594 236.460938 694.992188 233.195312 C 694.382812 230.546875 694.585938 228.503906 695.605469 228.503906 C 696.417969 228.503906 703.957031 232.789062 712.304688 237.894531 Z M 333.675781 252.582031 C 332.046875 255.644531 333.066406 258.496094 339.589844 267.472656 C 344.070312 273.59375 347.734375 280.738281 347.734375 283.589844 C 347.734375 290.324219 343.050781 297.054688 335.511719 300.933594 C 325.328125 306.234375 320.847656 304.808594 309.035156 292.769531 C 300.480469 284.203125 297.015625 281.757812 293.757812 282.777344 C 290.09375 284 290.09375 283.792969 292.535156 280.738281 C 294.167969 278.898438 299.054688 274.410156 303.332031 270.941406 C 311.070312 264.824219 311.273438 264.824219 310.050781 269.515625 C 309.238281 273.390625 311.070312 276.863281 318.199219 285.023438 C 328.179688 296.445312 333.472656 298.285156 339.996094 292.363281 C 345.292969 287.46875 344.476562 281.351562 337.140625 271.144531 C 329.605469 260.335938 327.363281 258.699219 322.882812 259.925781 C 316.976562 261.351562 318.808594 257.882812 326.957031 252.582031 C 335.304688 246.667969 336.730469 246.667969 333.675781 252.582031 Z M 592.136719 264.007812 C 655.890625 278.695312 707.824219 309.707031 747.953125 357.445312 C 802.941406 422.535156 824.734375 507.816406 807.828125 592.074219 C 789.09375 686.128906 722.894531 763.859375 632.0625 797.933594 C 603.136719 808.75 582.363281 812.421875 544.277344 813.441406 C 489.695312 815.070312 454.25 807.730469 410.871094 785.691406 C 381.949219 771.207031 364.84375 759.167969 342.441406 737.949219 C 283.574219 682.25 252.617188 604.519531 256.691406 522.503906 C 261.785156 421.714844 320.03125 332.761719 410.058594 287.875 C 439.179688 273.59375 455.066406 268.496094 498.453125 260.335938 C 509.449219 258.292969 579.101562 260.945312 592.136719 264.007812 Z M 754.875 267.269531 L 761.597656 272.984375 L 757.320312 285.835938 C 755.082031 292.769531 753.453125 298.894531 753.859375 299.300781 C 754.265625 299.710938 760.171875 297.875 766.894531 295.222656 L 779.113281 290.121094 L 787.054688 298.285156 C 793.164062 304.808594 793.980469 306.234375 790.3125 305.21875 C 784 303.179688 762.003906 323.167969 762.617188 330.3125 C 763.023438 334.800781 762.207031 334.597656 754.0625 326.4375 C 748.96875 321.539062 744.898438 317.050781 744.898438 316.644531 C 744.898438 316.238281 746.933594 316.238281 749.582031 317.050781 C 753.453125 317.867188 756.300781 316.03125 764.246094 308.074219 C 769.746094 302.363281 773.207031 297.875 771.984375 297.875 C 770.761719 297.875 763.226562 300.730469 755.285156 304.402344 C 747.339844 307.871094 740.207031 310.113281 739.394531 309.296875 C 738.78125 308.6875 740.613281 300.933594 743.472656 292.160156 C 746.527344 283.589844 748.96875 275.632812 748.96875 274.816406 C 748.96875 273.800781 744.695312 278.082031 739.597656 284.40625 C 732.875 292.769531 730.636719 297.054688 731.652344 299.914062 C 733.28125 305.21875 730.839844 305.011719 724.117188 298.894531 C 717.398438 293.179688 716.785156 290.9375 722.285156 292.769531 C 724.933594 293.59375 728.394531 291.140625 735.117188 283.183594 C 746.933594 268.902344 747.75 267.675781 744.898438 264.210938 C 740.410156 258.699219 747.339844 260.945312 754.875 267.269531 Z M 279.503906 297.875 C 277.464844 303.996094 299.867188 324.804688 306.792969 323.167969 C 311.273438 322.152344 311.070312 322.761719 303.941406 330.925781 C 295.183594 340.722656 292.128906 342.757812 293.960938 337.660156 C 295.386719 334.191406 287.648438 324.398438 283.78125 324.398438 C 282.558594 324.398438 279.296875 327.65625 276.449219 331.738281 L 271.558594 339.085938 L 277.464844 343.980469 C 281.945312 347.449219 284.1875 348.0625 287.039062 346.636719 C 292.128906 343.980469 291.722656 345.414062 284.1875 356.019531 C 278.484375 364.179688 277.261719 364.996094 276.449219 361.324219 C 275.023438 355.203125 249.765625 338.269531 246.507812 341.128906 C 240.601562 346.023438 242.027344 340.511719 248.953125 330.71875 C 256.894531 319.707031 259.136719 317.867188 257.507812 324.195312 C 256.894531 326.84375 258.523438 329.496094 262.394531 332.355469 L 268.097656 336.640625 L 274.207031 328.683594 L 280.316406 320.929688 L 275.632812 316.441406 C 271.96875 312.972656 269.523438 312.15625 266.0625 313.175781 C 262.191406 314.398438 262.800781 312.972656 270.132812 304.199219 C 279.707031 292.976562 281.539062 291.546875 279.503906 297.875 Z M 822.492188 344.386719 C 827.789062 353.160156 828.398438 355.613281 826.363281 358.0625 C 822.289062 362.957031 819.640625 361.730469 820.863281 355.410156 C 821.476562 351.9375 820.457031 347.449219 817.808594 343.167969 L 813.734375 336.640625 L 807.828125 340.925781 C 804.570312 343.167969 801.921875 345.820312 801.921875 346.839844 C 801.921875 350.105469 808.644531 355.203125 811.496094 354.1875 C 816.996094 351.9375 812.921875 357.859375 806.402344 361.730469 L 800.089844 365.402344 L 801.3125 358.46875 C 801.921875 354.390625 801.515625 350.921875 800.089844 350.105469 C 797.238281 348.265625 785.628906 355 785.628906 358.675781 C 785.628906 364.589844 792.148438 371.324219 798.054688 371.324219 C 805.589844 371.324219 807.015625 374.175781 800.703125 377.238281 C 793.574219 380.503906 792.757812 380.097656 790.109375 374.378906 C 788.683594 371.527344 784 364.179688 779.519531 358.0625 C 770.355469 345.617188 769.746094 343.980469 775.039062 345.617188 C 780.335938 347.449219 803.960938 329.496094 803.960938 323.785156 C 804.164062 319.910156 804.773438 320.113281 810.070312 326.4375 C 813.328125 330.3125 818.828125 338.472656 822.492188 344.386719 Z M 843.878906 382.542969 C 848.765625 393.96875 850.597656 402.128906 846.527344 394.988281 C 844.488281 391.722656 843.675781 392.136719 838.378906 400.085938 C 832.066406 409.882812 832.472656 410.699219 845.304688 413.144531 C 851.820312 414.371094 852.839844 414.167969 852.839844 410.902344 C 852.839844 405.804688 855.894531 409.476562 858.746094 418.046875 C 861.394531 425.996094 860.171875 428.855469 856.300781 423.960938 C 853.652344 420.285156 836.953125 414.167969 829.824219 414.167969 C 823.917969 414.167969 818.828125 418.046875 817.808594 423.347656 C 817.199219 426.410156 815.363281 424.164062 811.496094 415.390625 C 805.183594 401.519531 804.976562 400.496094 809.050781 403.964844 C 814.753906 408.65625 823.308594 402.945312 830.234375 389.683594 C 833.695312 383.152344 836.546875 376.421875 836.546875 374.582031 C 836.546875 368.667969 838.785156 371.121094 843.878906 382.542969 Z M 269.929688 376.832031 C 261.375 395.191406 254.859375 403.761719 257.507812 393.765625 C 258.320312 390.296875 257.507812 389.683594 252.824219 389.683594 C 247.933594 389.683594 246.304688 391.109375 243.65625 397.640625 C 240.398438 405.394531 240.398438 406.007812 244.269531 409.273438 C 247.527344 412.53125 248.546875 412.53125 249.972656 410.085938 C 253.636719 403.964844 254.042969 409.882812 250.378906 417.84375 C 246.710938 426.203125 243.859375 427.226562 243.859375 420.285156 C 243.859375 418.453125 240.804688 413.347656 237.140625 408.859375 C 211.480469 378.054688 211.480469 377.847656 243.453125 376.832031 C 256.691406 376.628906 268.097656 376.015625 268.910156 375.8125 C 269.929688 375.609375 270.335938 376.015625 269.929688 376.832031 Z M 252.414062 449.871094 C 252.824219 450.480469 250.988281 460.273438 248.34375 471.699219 C 243.65625 490.46875 243.25 497.203125 243.046875 534.542969 C 242.84375 579.21875 244.675781 592.277344 255.46875 627.367188 C 272.578125 682.457031 313.921875 739.789062 360.363281 772.835938 C 367.898438 778.144531 374.007812 783.246094 374.210938 784.058594 C 374.210938 785.488281 344.679688 841.59375 342.441406 844.246094 C 341.421875 845.671875 316.773438 827.925781 299.054688 813.03125 C 260.765625 780.792969 229.605469 739.992188 207.203125 693.066406 C 180.109375 635.9375 168.296875 575.140625 172.574219 513.730469 C 174.203125 489.449219 179.496094 454.5625 181.941406 450.480469 C 183.164062 448.648438 250.582031 448.242188 252.414062 449.871094 Z M 888.28125 452.320312 C 896.023438 478.84375 899.890625 542.703125 895.816406 576.570312 C 887.0625 647.976562 860.984375 710.410156 817.605469 764.472656 C 805.589844 779.367188 774.226562 810.582031 759.152344 822.621094 C 746.324219 832.617188 729.003906 844.65625 726.96875 844.65625 C 726.15625 844.65625 722.894531 839.351562 719.636719 833.023438 C 716.582031 826.496094 709.453125 813.238281 703.957031 803.445312 C 698.457031 793.648438 693.976562 785.078125 693.976562 784.671875 C 693.976562 784.265625 700.085938 779.367188 707.824219 774.066406 C 743.0625 748.96875 776.871094 708.976562 797.644531 667.359375 C 830.027344 603.09375 836.75 529.851562 817.199219 454.359375 L 815.773438 448.851562 L 851.414062 448.851562 C 883.800781 448.851562 887.265625 449.257812 888.28125 452.320312 Z M 398.652344 820.167969 C 398.652344 821.195312 397.835938 822.621094 396.613281 823.230469 C 395.597656 823.84375 394.578125 825.273438 394.578125 826.496094 C 394.578125 829.355469 400.078125 828.738281 403.335938 825.480469 C 404.964844 823.84375 407.207031 823.230469 408.835938 824.25 C 410.464844 825.273438 409.039062 826.703125 403.945312 828.332031 C 399.875 829.558594 396.613281 831.191406 396.613281 831.597656 C 396.613281 832.207031 398.039062 835.882812 399.667969 839.960938 C 401.300781 844.042969 402.316406 847.714844 401.910156 848.328125 C 399.875 850.160156 396.613281 846.289062 394.984375 839.960938 C 393.152344 832.617188 390.097656 832.003906 388.46875 838.535156 C 387.449219 842.414062 387.042969 842.617188 383.375 839.757812 C 381.136719 837.925781 380.320312 836.492188 381.542969 836.492188 C 382.5625 836.492188 385.820312 832.003906 388.46875 826.496094 C 391.523438 820.582031 394.578125 816.910156 396.003906 817.519531 C 397.429688 818.132812 398.652344 819.355469 398.652344 820.167969 Z M 677.070312 821.601562 C 673 822.621094 673.203125 829.761719 677.273438 828.941406 C 678.496094 828.535156 679.109375 829.761719 678.496094 831.191406 C 677.886719 832.820312 678.90625 836.898438 680.535156 840.167969 C 682.976562 845.0625 683.179688 846.492188 680.941406 847.308594 C 679.3125 847.921875 677.480469 845.671875 675.847656 841.386719 C 674.425781 837.511719 672.589844 834.457031 671.574219 834.457031 C 670.148438 834.457031 670.554688 829.96875 672.792969 822.621094 C 673.203125 821.398438 675.035156 820.375 677.070312 820.375 C 680.535156 820.582031 680.535156 820.785156 677.070312 821.601562 Z M 659.148438 837.308594 C 664.851562 850.363281 666.074219 854.859375 663.832031 854.859375 C 662.613281 854.859375 660.167969 850.574219 658.128906 845.0625 C 656.296875 839.757812 653.445312 834.457031 651.816406 833.226562 C 648.964844 830.78125 649.167969 830.578125 654.667969 828.535156 C 654.871094 828.332031 656.910156 832.414062 659.148438 837.308594 Z M 430.015625 841.386719 C 432.867188 842.414062 433.476562 843.839844 432.257812 848.328125 C 431.238281 851.390625 430.625 855.265625 430.421875 857.101562 C 430.421875 859.144531 429.199219 860.164062 427.570312 859.550781 C 426.144531 858.933594 425.332031 857.101562 425.941406 855.46875 C 429.8125 845.671875 429.609375 842.617188 425.535156 842.617188 C 422.480469 842.617188 421.054688 844.449219 420.035156 848.734375 C 419.222656 852.203125 417.386719 854.859375 415.554688 854.859375 C 413.925781 854.859375 412.90625 854.242188 413.316406 853.222656 C 413.722656 852.410156 415.148438 848.53125 416.777344 844.246094 C 419.019531 838.535156 420.445312 837.308594 422.886719 838.535156 C 424.71875 839.554688 427.777344 840.777344 430.015625 841.386719 Z M 646.113281 848.53125 C 646.113281 850.160156 644.894531 851.796875 643.261719 852.410156 C 641.632812 853.019531 641.023438 852.410156 641.835938 851.1875 C 643.671875 848.125 638.988281 845.875 636.339844 848.53125 C 634.710938 850.160156 634.710938 851.390625 635.929688 852.410156 C 637.152344 853.222656 637.96875 855.0625 637.96875 856.691406 C 637.96875 860.976562 642.042969 861.589844 645.910156 857.914062 C 647.742188 856.082031 649.167969 855.265625 649.167969 856.285156 C 649.167969 862.605469 639.191406 864.855469 634.097656 859.753906 C 630.023438 855.675781 630.023438 852 634.097656 847.714844 C 637.96875 843.839844 646.113281 844.449219 646.113281 848.53125 Z M 458.527344 852 C 460.363281 853.628906 461.789062 856.488281 461.789062 857.914062 C 461.789062 861.792969 456.085938 867.09375 451.808594 867.09375 C 449.769531 867.09375 446.511719 865.261719 444.476562 863.015625 C 436.328125 854.039062 449.976562 843.226562 458.527344 852 Z M 559.550781 855.878906 C 559.550781 860.367188 560.164062 860.976562 564.644531 859.753906 C 570.140625 858.324219 570.550781 859.144531 572.585938 870.566406 C 573.402344 875.664062 572.992188 877.300781 570.753906 877.300781 C 568.714844 877.300781 567.699219 875.054688 567.699219 870.566406 C 567.699219 862.8125 566.476562 860.773438 562.402344 862.402344 C 558.941406 863.632812 558.738281 871.582031 561.996094 874.847656 C 563.828125 876.6875 563.421875 877.300781 560.164062 877.300781 C 556.292969 877.300781 555.683594 875.867188 555.070312 864.039062 C 554.664062 854.445312 555.070312 850.777344 557.109375 850.777344 C 558.328125 850.777344 559.550781 853.019531 559.550781 855.878906 Z M 620.65625 852.816406 C 620.65625 853.835938 619.84375 854.859375 618.824219 854.859375 C 617.601562 854.859375 616.175781 853.835938 615.566406 852.816406 C 614.953125 851.59375 615.769531 850.777344 617.398438 850.777344 C 619.230469 850.777344 620.65625 851.59375 620.65625 852.816406 Z M 476.457031 859.347656 C 475.847656 861.589844 476.660156 864.242188 478.289062 865.261719 C 480.53125 866.484375 480.53125 867.503906 478.695312 869.34375 C 475.234375 872.8125 474.421875 871.582031 472.789062 861.386719 C 471.5625 854.242188 471.96875 853.019531 474.625 853.835938 C 476.457031 854.648438 477.273438 856.691406 476.457031 859.347656 Z M 545.296875 856.285156 C 545.296875 858.933594 544.683594 859.144531 542.851562 857.304688 C 539.390625 853.835938 537.148438 854.242188 537.148438 858.730469 C 537.148438 860.976562 536.335938 863.21875 535.316406 863.835938 C 534.296875 864.445312 533.6875 867.300781 533.6875 870.15625 C 533.6875 872.8125 534.296875 874.644531 535.316406 874.035156 C 536.335938 873.421875 537.148438 874.035156 537.148438 875.054688 C 537.148438 876.28125 535.316406 877.300781 533.074219 877.300781 C 529.410156 877.300781 529.003906 875.867188 529.003906 866.078125 C 529.003906 854.648438 527.78125 852.816406 523.300781 857.304688 C 521.464844 859.144531 520.855469 858.933594 520.855469 856.285156 C 520.855469 853.425781 522.890625 852.816406 533.074219 852.816406 C 543.257812 852.816406 545.296875 853.425781 545.296875 856.285156 Z M 617.601562 858.933594 C 620.25 858.933594 622.898438 859.753906 623.507812 860.773438 C 625.542969 863.835938 622.488281 869.140625 618.824219 869.140625 C 615.972656 869.140625 615.972656 868.730469 618.621094 867.09375 C 622.082031 864.855469 620.859375 863.21875 614.546875 861.996094 C 608.4375 860.773438 607.621094 859.753906 609.457031 855.46875 C 611.085938 852 611.085938 852 611.898438 855.265625 C 612.511719 857.507812 614.75 858.933594 617.601562 858.933594 Z M 599.0625 857.914062 C 598.246094 859.550781 597.433594 860.976562 597.027344 860.976562 C 596.617188 860.976562 596.210938 859.550781 596.210938 857.914062 C 596.210938 856.285156 597.027344 854.859375 598.246094 854.859375 C 599.265625 854.859375 599.671875 856.285156 599.0625 857.914062 Z M 487.453125 862.402344 C 488.878906 867.300781 489.085938 867.503906 491.527344 864.039062 C 492.953125 861.996094 493.769531 859.550781 493.15625 858.730469 C 492.546875 857.710938 492.953125 856.898438 494.175781 856.898438 C 495.195312 856.898438 496.824219 857.710938 497.433594 858.933594 C 498.046875 859.957031 497.839844 860.976562 496.824219 860.976562 C 495.804688 860.976562 493.769531 863.632812 492.34375 867.09375 C 489.289062 874.644531 486.640625 874.847656 485.011719 868.121094 C 484.398438 865.261719 482.972656 863.015625 481.957031 863.015625 C 480.9375 863.015625 480.734375 861.589844 481.34375 859.957031 C 483.179688 855.265625 486.027344 856.285156 487.453125 862.402344 Z M 588.066406 859.753906 C 588.066406 864.039062 593.5625 867.917969 594.785156 864.652344 C 597.027344 859.347656 596.210938 868.933594 593.972656 874.644531 C 591.324219 881.789062 583.992188 886.886719 583.992188 881.382812 C 583.992188 880.152344 585.417969 879.335938 587.046875 879.335938 C 592.546875 879.335938 592.75 873.628906 587.25 866.484375 C 582.363281 860.164062 582.160156 856.898438 586.433594 856.898438 C 587.25 856.898438 588.066406 858.117188 588.066406 859.753906 Z M 613.527344 866.890625 C 614.140625 867.917969 613.730469 869.34375 612.511719 870.15625 C 611.492188 870.769531 610.472656 869.953125 610.472656 868.324219 C 610.472656 864.652344 611.695312 864.039062 613.527344 866.890625 Z M 613.527344 866.890625 "/>
<path style=" stroke:none;fill-rule:nonzero;fill:#4d615c;fill-opacity:1;" d="M 467.285156 207.488281 C 466.472656 208.105469 465.859375 211.570312 465.859375 214.835938 C 465.859375 219.324219 466.675781 220.546875 469.121094 219.527344 C 470.953125 218.917969 473.199219 218.304688 474.214844 218.304688 C 475.234375 218.304688 474.828125 215.445312 472.996094 212.1875 C 469.527344 205.65625 469.324219 205.453125 467.285156 207.488281 Z M 467.285156 207.488281 "/>
<path style=" stroke:none;fill-rule:nonzero;fill:#4d615c;fill-opacity:1;" d="M 583.378906 209.941406 C 578.898438 217.695312 578.898438 218.304688 585.007812 218.304688 C 590.304688 218.304688 591.324219 215.039062 588.472656 207.488281 C 587.25 204.433594 586.433594 204.636719 583.378906 209.941406 Z M 583.378906 209.941406 "/>
<path style=" stroke:none;fill-rule:nonzero;fill:#4d615c;fill-opacity:1;" d="M 642.042969 228.707031 C 637.355469 242.382812 636.949219 245.640625 639.191406 247.074219 C 645.910156 251.359375 650.800781 248.90625 657.113281 238.707031 C 662.40625 229.730469 662.613281 221.570312 657.316406 216.261719 C 650.1875 209.125 647.742188 211.164062 642.042969 228.707031 Z M 642.042969 228.707031 "/>
<path style=" stroke:none;fill-rule:nonzero;fill:#4d615c;fill-opacity:1;" d="M 502.527344 274.816406 C 466.472656 280.527344 444.273438 287.265625 414.945312 301.953125 C 343.253906 337.863281 292.332031 405.394531 275.023438 487.617188 C 269.523438 514.136719 269.929688 561.675781 276.039062 589.425781 C 294.167969 671.238281 343.253906 735.300781 415.964844 771.613281 C 478.492188 803.03125 551.609375 808.542969 618.007812 786.511719 C 656.09375 773.863281 687.867188 754.679688 717.191406 726.324219 C 741.023438 703.46875 756.507812 682.046875 771.375 652.054688 C 789.5 615.335938 795.8125 589.832031 797.238281 546.375 C 798.257812 519.238281 797.644531 508.425781 794.796875 492.308594 C 785.222656 438.445312 762.207031 393.5625 723.914062 353.777344 C 673.203125 300.933594 605.988281 272.78125 532.464844 273.59375 C 518.820312 273.800781 505.378906 274.410156 502.527344 274.816406 Z M 586.433594 283.792969 C 636.746094 293.796875 681.960938 318.070312 718.617188 355 C 804.570312 441.710938 817.808594 577.792969 750.191406 679.398438 C 689.699219 770.1875 580.324219 812.828125 473.199219 787.53125 C 399.464844 770.1875 335.917969 718.773438 301.90625 648.996094 C 255.265625 553.71875 273.390625 435.792969 346.71875 359.285156 C 409.648438 293.59375 496.824219 266.046875 586.433594 283.792969 Z M 586.433594 283.792969 "/>
<path style=" stroke:none;fill-rule:nonzero;fill:#4d615c;fill-opacity:1;" d="M 476.863281 423.960938 C 477.679688 425.386719 479.714844 426.410156 481.34375 426.410156 C 485.214844 426.410156 503.953125 436 512.097656 442.117188 C 515.558594 444.769531 521.875 452.117188 526.152344 458.234375 C 530.222656 464.148438 534.296875 469.253906 534.910156 469.253906 C 535.722656 469.253906 537.964844 465.988281 540 462.113281 C 545.703125 451.703125 561.996094 437.222656 574.417969 431.511719 C 580.121094 428.652344 586.027344 426.410156 587.453125 426.410156 C 588.675781 426.410156 590.507812 425.386719 591.324219 423.960938 C 593.5625 420.492188 569.125 423.550781 558.738281 428.246094 C 553.847656 430.28125 546.722656 435.386719 542.445312 439.671875 L 534.910156 447.214844 L 525.742188 438.648438 C 520.652344 433.957031 513.320312 428.855469 509.449219 427.226562 C 499.878906 423.144531 474.828125 420.695312 476.863281 423.960938 Z M 476.863281 423.960938 "/>
<path style=" stroke:none;fill-rule:nonzero;fill:#4d615c;fill-opacity:1;" d="M 454.046875 444.769531 C 487.660156 451.90625 510.671875 469.664062 525.335938 499.859375 C 533.6875 516.996094 537.148438 521.6875 537.148438 515.359375 C 537.148438 513.933594 540.40625 506.382812 544.277344 498.628906 C 558.125 470.886719 585.824219 450.277344 617.601562 443.957031 L 631.859375 441.097656 L 615.363281 440.894531 C 584.195312 440.488281 557.515625 453.542969 543.054688 476.390625 C 539.183594 482.515625 535.519531 487.414062 534.703125 487.617188 C 533.890625 487.617188 531.648438 484.757812 530.019531 481.289062 C 525.132812 471.90625 513.726562 460.070312 502.933594 453.339844 C 489.085938 444.566406 474.011719 440.691406 453.84375 440.894531 L 436.328125 440.894531 Z M 454.046875 444.769531 "/>
<path style=" stroke:none;fill-rule:nonzero;fill:#4d615c;fill-opacity:1;" d="M 422.683594 458.234375 C 422.074219 459.253906 421.664062 485.367188 421.871094 516.175781 L 422.074219 572.285156 L 438.367188 575.546875 C 468.304688 581.875 487.25 591.871094 510.265625 612.886719 L 522.890625 624.71875 L 522.890625 581.875 C 522.890625 558 521.875 533.929688 520.652344 528.011719 C 514.949219 500.878906 497.433594 478.027344 472.996094 465.988281 C 460.566406 459.867188 455.269531 458.441406 440.808594 457.625 C 431.441406 457.011719 423.292969 457.21875 422.683594 458.234375 Z M 438.367188 505.570312 C 438.367188 539.84375 435.921875 554.125 433.070312 535.558594 C 429.609375 512.507812 431.847656 467.007812 436.125 471.292969 C 437.550781 472.71875 438.367188 484.960938 438.367188 505.570312 Z M 438.367188 505.570312 "/>
<path style=" stroke:none;fill-rule:nonzero;fill:#4d615c;fill-opacity:1;" d="M 610.269531 460.273438 C 585.417969 467.824219 567.289062 483.738281 555.886719 507.605469 L 548.351562 523.316406 L 547.738281 574.121094 L 547.128906 625.128906 L 561.382812 611.457031 C 569.328125 603.910156 580.734375 595.136719 586.433594 591.667969 C 598.859375 584.523438 623.507812 576.15625 637.5625 574.324219 L 647.132812 573.101562 L 647.132812 457.011719 L 633.488281 457.21875 C 625.75 457.21875 615.363281 458.644531 610.269531 460.273438 Z M 594.785156 481.898438 C 579.917969 497.609375 568.511719 517.402344 558.738281 545.554688 C 555.886719 553.71875 555.070312 546.375 557.3125 533.3125 C 561.589844 509.242188 574.828125 489.246094 594.175781 477.613281 C 604.152344 471.699219 604.359375 472.109375 594.785156 481.898438 Z M 594.785156 481.898438 "/>
<path style=" stroke:none;fill-rule:nonzero;fill:#4d615c;fill-opacity:1;" d="M 401.09375 482.71875 C 396.613281 485.777344 396.613281 486.394531 396.613281 538.417969 C 396.613281 583.300781 397.023438 591.460938 399.667969 593.710938 C 401.503906 595.136719 412.90625 597.992188 425.332031 600.03125 C 447.53125 603.910156 471.359375 610.847656 487.25 618.59375 L 495.398438 622.472656 L 487.660156 615.335938 C 472.175781 601.457031 437.347656 587.585938 417.59375 587.585938 L 408.835938 587.585938 L 408.835938 533.523438 C 408.835938 503.734375 408.222656 479.453125 407.207031 479.453125 C 406.390625 479.453125 403.539062 480.878906 401.09375 482.71875 Z M 401.09375 482.71875 "/>
<path style=" stroke:none;fill-rule:nonzero;fill:#4d615c;fill-opacity:1;" d="M 660.574219 480.878906 C 659.964844 481.492188 659.351562 505.976562 659.351562 534.949219 L 659.351562 587.585938 L 652.222656 587.585938 C 633.488281 587.585938 604.765625 598.402344 584.601562 612.886719 C 578.695312 617.167969 573.808594 621.046875 573.808594 621.453125 C 573.808594 621.859375 577.269531 620.84375 581.546875 619.003906 C 606.800781 607.785156 629.210938 601.457031 652.835938 598.808594 C 673.609375 596.5625 673.609375 596.5625 673.609375 539.234375 C 673.609375 510.464844 672.792969 489.855469 671.574219 487.617188 C 669.128906 482.925781 662.613281 479.046875 660.574219 480.878906 Z M 660.574219 480.878906 "/>
<path style=" stroke:none;fill-rule:nonzero;fill:#4d615c;fill-opacity:1;" d="M 516.375 662.871094 C 503.136719 691.023438 501.507812 695.714844 504.359375 695.714844 C 505.582031 695.714844 508.636719 691.636719 511.078125 686.738281 C 513.523438 681.640625 517.191406 677.152344 519.226562 676.746094 C 523.910156 675.523438 523.707031 675.726562 518.820312 685.515625 C 513.929688 695.105469 513.929688 695.714844 517.597656 695.714844 C 519.226562 695.714844 522.078125 691.636719 524.316406 686.535156 C 527.78125 677.761719 528.390625 677.355469 536.128906 677.355469 C 544.074219 677.355469 544.683594 677.761719 547.535156 685.925781 C 549.367188 690.820312 552.21875 694.902344 554.257812 695.308594 C 557.3125 695.917969 557.3125 695.511719 554.054688 688.171875 C 552.015625 683.886719 549.570312 679.804688 548.351562 678.984375 C 547.332031 678.171875 548.554688 677.355469 551.40625 677.355469 C 555.476562 677.355469 557.3125 679.195312 560.164062 686.535156 C 562.402344 691.636719 565.253906 695.714844 566.882812 695.714844 C 568.511719 695.714844 569.734375 695.308594 569.734375 694.699219 C 569.734375 694.289062 563.625 681.234375 556.292969 665.726562 C 543.664062 639.203125 542.648438 637.980469 540.816406 643.078125 C 538.980469 648.179688 533.074219 651.242188 533.074219 647.160156 C 533.074219 646.140625 531.851562 643.894531 530.429688 642.0625 C 528.390625 639 526.558594 641.652344 516.375 662.871094 Z M 531.242188 661.03125 C 530.222656 661.644531 528.390625 664.503906 526.761719 667.5625 C 524.726562 671.238281 523.097656 672.664062 521.261719 671.441406 C 519.023438 670.214844 519.632812 667.769531 523.097656 660.21875 C 527.578125 651.039062 527.984375 650.832031 530.222656 655.320312 C 531.648438 657.976562 532.058594 660.421875 531.242188 661.03125 Z M 547.941406 660.015625 C 552.015625 668.785156 552.21875 671.238281 548.757812 671.238281 C 545.5 671.238281 538.574219 657.5625 540.203125 654.710938 C 542.445312 651.242188 544.480469 652.871094 547.941406 660.015625 Z M 539.183594 667.15625 L 543.257812 671.238281 L 538.167969 671.238281 C 534.5 671.238281 533.074219 670.214844 533.074219 667.15625 C 533.074219 664.910156 533.484375 663.074219 534.09375 663.074219 C 534.703125 663.074219 536.945312 664.910156 539.183594 667.15625 Z M 539.183594 667.15625 "/>
<path style=" stroke:none;fill-rule:nonzero;fill:#4d615c;fill-opacity:1;" d="M 231.84375 396.007812 C 236.324219 402.539062 238.363281 402.128906 240.804688 394.171875 C 242.027344 390.089844 241.417969 389.683594 234.695312 389.683594 L 227.363281 389.683594 Z M 231.84375 396.007812 "/>
<path style=" stroke:none;fill-rule:nonzero;fill:#4d615c;fill-opacity:1;" d="M 447.53125 855.0625 C 444.679688 860.164062 446.308594 865.058594 450.382812 865.058594 C 454.25 865.058594 458.527344 857.710938 456.898438 853.628906 C 455.269531 849.347656 449.976562 850.160156 447.53125 855.0625 Z M 447.53125 855.0625 "/>
</g>
</svg>